# Alias OBJ Model File
# Exported from SketchUp, (c) 2000-2012 Trimble Navigation Limited
# File units = millimeters

mtllib bishop.mtl

g Mesh1 Group1 Model

usemtl FrontColor
v 35 0 -0
vt -1.37795 0
vn 0 0 -1
v 0 0 -0
vt 0 0
v 17.5 2 -0
vt -0.688976 0.0787402
f 1/1/1 2/2/1 3/3/1

vn 0 -1 -0
v 0 0 -35
vt 0 1.37795
v 35 0 -35
vt -1.37795 1.37795
f 2/2/2 4/4/2 5/5/2 1/1/2 

vn -1 0 -0
v 0 2 -35
vt -1.37795 0.0787402
f 4/1/3 2/2/3 6/6/3

vn -0.113364 0.991935 0.056682
vt 0.30812 0.621249
vt -1.23248 0.621249
f 2/2/4 3/7/4 6/8/4

vn 0 1 -0
vt 0.688976 0
v 35 2 -35
vt 1.37795 1.37795
f 6/4/5 3/9/5 7/10/5

vt 0.30812 0.27682
vn -0.844782 0.328526 0.422391
v 17.5 20.1242 -14.0966
vt -0.188274 1.03231
vt -1.23248 0.27682
f 3/11/6 8/12/6 6/13/6

vt 0.30812 -0.128081
vn 0.844782 0.328526 0.422391
vt 1.84872 -0.128081
vt 0.804514 0.627405
f 3/14/7 7/15/7 8/16/7

vt 0.616239 -1.22254
vn 0.113364 0.991935 0.056682
vt 1.84872 -0.60129
vt 0.30812 -0.60129
f 1/17/8 7/18/8 3/19/8

vn 1 0 -0
vt 1.37795 0
vt 1.37795 0.0787402
f 1/2/9 5/20/9 7/21/9

vt 0 0.0787402
f 5/1/1 4/2/1 6/22/1 7/6/1 

vt 6.1101e-018 -0.0547693
vn 4.41344e-018 0.0966224 -0.995321
v 13.5046 32.8729 -32.003
vt -0.531679 1.16641
v 21.4954 32.8729 -32.003
vt -0.846274 1.16641
vt -1.37795 -0.0547693
f 6/23/10 9/24/10 10/25/10 7/26/10 

vt -0.67967 -0.269236
vn -0.472418 0.287528 -0.833156
v 4.88293 34.4828 -26.5587
vt -0.682976 1.066
vt -1.08397 0.999822
f 6/27/11 11/28/11 9/29/11

vt -1.0179 0.0191529
vn -0.737194 -0.0639831 0.672645
vt 0.0544158 0.734171
vt -0.64283 1.30063
f 6/30/12 8/31/12 11/32/12

vt -0.889168 1.56372
f 9/33/6 6/13/6 8/12/6

vt 9.21944e-032 -0.989525
vn 4.38303e-032 0.755546 -0.655095
vt -0.688976 0.09971
vt -1.37795 -0.989525
f 6/34/13 8/35/13 7/36/13

vt 1.50541 1.15882
f 10/37/7 8/16/7 7/15/7

vt -0.531679 1.77702
vn 5.89718e-017 -0.814628 -0.579984
vt -0.846274 1.77702
vt -0.688976 0.911624
f 9/38/14 10/39/14 8/40/14

vt -0.846274 1.52751
vn -3.13913e-018 -0.207529 -0.978229
vt -0.531679 1.52751
v 17.5 47 -35
vt -0.688976 2.09607
f 10/41/15 9/42/15 12/43/15

vt -1.32164 1.871
vn -0.537313 -0.0268707 -0.842955
vt -1.12558 1.31461
vt -0.724135 1.37802
f 12/44/16 9/45/16 11/46/16

vt -1.25306 1.24027
vn -0.43337 -0.777032 -0.456522
vt -0.88178 0.442898
vt -0.859308 1.34096
f 9/47/17 8/48/17 11/49/17

v 17.5 64.5613 -20.2857
vt -0.020574 2.63972
vn 0.634673 -0.106602 -0.765393
v 17.5 33.4828 -15.9572
vt -0.129351 1.40914
v 14.2423 33.4828 -18.6585
vt 0.0372646 1.40914
v 13.9063 31.4828 -18.6585
vt 0.0474453 1.32995
v 17.5 31.4828 -15.6786
vt -0.136351 1.32995
vt -0.176107 0.880201
vt 0.519445 1.44874
f 13/50/18 14/51/18 15/52/18 16/53/18 17/54/18 8/55/18 11/56/18 

vt -0.884613 0.786439
vn -0.634673 -0.106602 -0.765393
vt -0.924368 1.23619
v 21.0937 31.4828 -18.6585
vt -1.10816 1.23619
v 20.7577 33.4828 -18.6585
vt -1.09798 1.31538
vt -0.931368 1.31538
vt -1.04015 2.54595
v 30.1171 34.4828 -26.5587
vt -1.58016 1.35498
f 8/57/19 17/58/19 18/59/19 19/60/19 14/61/19 13/62/19 20/63/19 

vt -0.547494 0.734587
vt -0.830459 0.734587
vt -0.688976 0.617268
f 16/64/2 18/65/2 17/66/2

vt -0.560719 1.31822
vn -7.80943e-016 3.27754e-030 -1
vt -0.817234 1.31822
vt -0.830459 1.23948
vt -0.547494 1.23948
f 15/67/20 19/68/20 18/69/20 16/70/20 

vt 0.817234 0.734587
vt 0.560719 0.734587
vt 0.688976 0.628235
f 19/71/5 15/72/5 14/73/5

vt -0.212433 0.570953
vn -0.7546 -0.421429 0.502968
vt -0.282432 1.87677
vt -0.764471 1.11437
f 20/74/21 13/75/21 12/76/21

vt -0.97668 1.05416
vn -0.7546 0.421429 -0.502968
vt -1.04668 2.35998
vt -1.52872 1.59758
f 11/77/22 13/78/22 12/79/22

vt -0.0363923 1.33451
vn 0.537313 -0.0268707 -0.842955
vt 0.159673 1.8909
vt -0.437837 1.39792
f 10/80/23 12/81/23 20/82/23

vt -0.117591 1.18006
vn 0.43337 -0.777032 -0.456522
vt 0.253686 1.97743
vt -0.140063 2.07813
f 8/83/24 10/84/24 20/85/24

vt 0.114694 0.804397
vn -0.472418 -0.287528 0.833156
vt 0.518996 -0.46466
vt 0.515691 0.870574
f 10/86/25 7/87/25 20/88/25

vt -1.94668 0.0842816
vn -0.737194 0.0639831 -0.672645
vt -0.87436 0.799299
vt -1.57161 1.36576
f 7/89/26 8/90/26 20/91/26

