# Alias OBJ Model File
# Exported from SketchUp, (c) 2000-2012 Trimble Navigation Limited
# File units = millimeters

mtllib horse.mtl

g Mesh1 Group1 Model

usemtl FrontColor
v 31.5 4.98 -31.5
vt -1.37795 -1.20153
vn -2.82092e-019 0.937812 -0.347145
v 0 4.98 -31.5
vt -1.11973e-018 -1.20153
v 15.75 14.9737 -9.1875
vt -0.688976 -0.147666
f 1/1/1 2/2/1 3/3/1

vt 0 1.37795
vn 0 1 -0
v 15.75 4.98 -0
vt 0.688976 0
vt 1.37795 1.37795
f 2/4/2 4/5/2 1/6/2

vt 0.30812 0.43438
vn -0.800808 0.445402 0.400404
vt -0.0513533 0.870562
vt -1.23248 0.43438
f 4/7/3 3/8/3 2/9/3

vt 0.30812 -0.073484
vn 0.800808 0.445402 0.400404
vt 1.84872 -0.073484
vt 0.667592 0.362698
f 4/10/4 1/11/4 3/12/4

v 31.5 0 -0
vt 0.616239 -1.17337
vn 0.250829 0.959873 0.125414
vt 1.84872 -0.526093
vt 0.30812 -0.526093
f 5/13/5 1/14/5 4/15/5

vt 0 0
vn 1 0 -0
v 31.5 0 -31.5
vt 1.37795 0
vt 1.37795 0.198043
f 5/16/6 6/17/6 1/18/6

v 0 0 -0
vn 0 -1 -0
v 0 0 -31.5
vt -1.37795 1.37795
vt -1.37795 0
f 7/16/7 8/4/7 6/19/7 5/20/7 

vn -1 0 -0
vt -1.37795 0.198043
f 8/20/8 7/16/8 2/21/8

vn -0.250829 0.959873 0.125414
vt 0.30812 0.64728
vt -1.23248 0.64728
f 7/16/9 4/22/9 2/23/9

vn 0 0 1
vt 0.688976 0.198043
f 7/16/10 5/17/10 4/24/10

vn 0 0 -1
vt 0 0.198043
f 8/16/11 2/25/11 1/21/11 6/20/11 

v 23.625 24.255 -15.75
vt -1.03346 0.256803
vn -3.99474e-018 0.703083 -0.711107
vt -1.37795 -0.773851
vt -7.74083e-018 -0.773851
v 7.875 24.255 -15.75
vt -0.344488 0.256803
f 9/26/12 1/27/12 2/28/12 10/29/12 

v 18.5294 20.3241 -0
vt 0.270098 0.707871
vn 0.934167 0.135383 0.330155
vt 1.75837 0.0929804
vt 0.993974 0.865395
f 11/30/13 1/31/13 9/32/13

vt 0.765035 0.0681948
vn 0.10006 -0.908041 0.406755
vt 1.66722 -0.810086
vt 0.787095 0.538401
f 3/33/14 1/34/14 11/35/14

vt 0.688976 -0.0765827
vn 1.99907e-017 -0.901071 0.433671
vt 0.81056 0.378168
v 12.9706 20.3241 -0
vt 0.567392 0.378168
f 3/36/15 11/37/15 12/38/15

v 18.1125 24.255 -0
vt 0.792323 0.964567
v 17.5 29.205 -0
vt 0.765529 1.16142
v 15.75 30.305 -0
vt 0.688976 1.20516
v 14 29.205 -0
vt 0.612423 1.16142
v 13.3875 24.255 -0
vt 0.58563 0.964567
vt 0.567392 0.808245
vt 0.81056 0.808245
f 13/39/10 14/40/10 15/41/10 16/42/10 17/43/10 12/44/10 11/45/10 

vt 0.261744 0.861413
vn 0.934573 0.139926 0.3271
vt 0.991702 0.861413
v 23.625 46.53 -23.625
vt 1.31685 1.75452
v 21.6563 40.9612 -16.0313
vt 0.974864 1.53124
vt 0.252893 1.05988
f 13/46/16 9/47/16 18/48/16 19/49/16 14/50/16 

vt 0.991702 0.876917
vn 0.937009 0.12025 0.327953
vt 0.261744 0.876917
vt 0.267769 0.719649
f 9/51/17 13/52/17 11/53/17

vt -1.03346 2.09915
vn 2.98661e-018 -0.393303 -0.919409
vt -1.03346 1.1487
vt -0.344488 1.1487
v 7.875 46.53 -23.625
vt -0.344488 2.09915
f 18/54/18 9/55/18 10/56/18 20/57/18 

vt 0.202314 1.22561
vn -0.934573 0.139926 0.3271
v 9.84375 40.9612 -16.0313
vt -0.519656 1.69697
vt -0.861642 1.92024
vt -0.536494 1.02714
vt 0.193463 1.02714
f 16/58/19 21/59/19 20/60/19 10/61/19 17/62/19 

vt 0.564087 1.13053
vn -0.385217 0.741543 0.549291
v 15.75 51.48 -23.625
vt -0.0293032 2.32428
v 11.8125 49.005 -23.625
vt -0.170325 2.18475
vt -0.0501033 1.73128
vt 0.501411 1.06852
f 15/63/20 22/64/20 23/65/20 21/66/20 16/67/20 

vt 0.626763 0.507722
vn 0.385217 0.741543 0.549291
vt 1.17828 1.17049
v 19.6875 49.005 -23.625
vt 1.2985 1.62396
vt 1.15748 1.76349
vt 0.564087 0.569735
f 14/68/21 19/69/21 24/70/21 22/71/21 15/72/21 

vt -0.441089 1.62894
vn -0.967997 3.23985e-016 0.250962
v 19.6875 53.955 -23.625
vt -0.784257 2.14567
vt -0.784257 1.94882
f 19/73/22 25/74/22 24/75/22

vt 1.33565 1.85656
vn 0.738852 0.474096 0.478885
vt 1.10374 1.28124
vt 1.42933 1.5278
f 25/76/23 19/77/23 18/78/23

vt -0.344488 1.85039
v 11.8125 53.955 -23.625
vt -0.516732 2.14567
vt -0.516732 1.94882
vt -0.688976 2.04724
vt -0.86122 1.94882
vt -0.86122 2.14567
vt -1.03346 1.85039
f 20/79/11 26/80/11 23/81/11 22/82/11 24/83/11 25/84/11 18/85/11 

vt -0.354274 1.78962
vn -0.738852 0.474096 0.478885
vt -0.586187 2.36494
vt -0.679869 2.03619
f 21/86/24 26/87/24 20/88/24

vt 1.13007 2.14567
vn 0.967997 0 0.250962
vt 0.786903 1.62894
vt 1.13007 1.94882
f 26/89/25 21/90/25 23/91/25

vt 0.193463 1.02663
vn -0.934745 0.13863 0.327161
vt -0.536494 1.02663
vt -1.30059 0.253923
f 17/92/26 10/93/26 2/94/26

vt -1.29646 0.2478
vn -0.934073 0.119873 0.336361
vt 0.192235 0.861666
vt 0.198414 1.01893
f 2/95/27 12/96/27 17/97/27

vt 0.550967 0.244872
vn -0.10006 -0.908041 0.406755
vt -0.329156 -1.10361
vt 0.573027 -0.225334
f 12/98/28 2/99/28 3/100/28

