# Alias OBJ Model File
# Exported from SketchUp, (c) 2000-2012 Trimble Navigation Limited
# File units = millimeters

mtllib pawn.mtl

g Mesh1 Group1 Model

usemtl FrontColor
v 10 2 -5
vt 0.0545965 0.0381977
vn -0.828517 -0.0920575 0.552345
v 2.50121 9.50362 -14.9976
vt -0.436666 0.334876
v 0 2 -20
vt -0.655158 0.0381977
f 1/1/1 2/2/1 3/3/1

vt 0.393701 0.204705
vn 9.55433e-017 0.799791 0.600278
v 7.79929 7.70279 -12.5982
vt 0.307059 0.578731
vt 0.0984727 0.696841
f 1/4/2 4/5/2 2/6/2

v 10 5.50066 -9.66416
vt 0.393701 0.434301
f 4/5/2 1/4/2 5/7/2

v 17.4988 9.50362 -14.9976
vt 0.688929 0.696841
f 5/7/2 1/4/2 6/8/2

vt 0.873438 0.395188
vn 0.828517 -0.0920575 0.552345
vt 0.382175 0.0985099
v 20 2 -20
vt 1.09193 0.0985099
f 6/9/3 1/10/3 7/11/3

v 11.758 7.17215 -7.16879
vt 0.49984 0.288546
vn 0.810302 -0.0300203 0.585244
vt 0.390095 0.0848259
vt 0.882036 0.380377
f 8/12/4 1/13/4 6/14/4

v 11.758 25.5994 -6.22356
vt 0.469671 1.01435
f 1/13/4 8/12/4 9/15/4

v 8.24196 25.5994 -6.22356
vt -0.324487 0.993975
vn -6.30485e-016 0.0512281 -0.998687
vt -0.462915 0.993975
vt -0.462915 0.267539
v 8.24196 7.17215 -7.16879
vt -0.324487 0.267539
f 10/16/5 9/17/5 8/18/5 11/19/5 

vt -0.462915 0.976656
vn 3.25547e-016 -0.549585 -0.835438
vt -0.324487 0.976656
v 10 28.1665 -7.91231
vt -0.393701 1.09763
f 9/20/6 10/21/6 12/22/6

vt 0.441998 1.12288
vn 0.861629 -0.345489 0.371798
vt 0.353531 1.01518
v 4.71004 10.7063 -11.8776
vt 0.502825 0.390369
v 6.23919 12.3083 -13.9328
vt 0.600967 0.457576
f 12/23/7 10/24/7 13/25/7 14/26/7 

vt -0.0086419 0.995192
vn -0.810302 -0.0300203 0.585244
vt -0.421007 0.361215
vt -0.270514 0.408587
f 10/27/8 2/28/8 13/29/8

v 10 41.1238 -2.99313
vt 0.134986 1.60666
f 10/27/8 15/30/8 2/28/8

vt 0.0709346 0.0656633
f 15/30/8 10/27/8 1/31/8

vt -0.03881 0.269383
f 11/32/8 1/31/8 10/27/8

f 1/31/8 11/32/8 2/28/8

f 2/28/8 11/32/8 13/29/8

vt -0.470983 0.16808
vn -0.698587 -0.715407 -0.0129619
vt -0.501603 -0.00116191
vt -0.387717 -0.125245
vt -0.288207 -0.0310617
f 13/33/9 4/34/9 5/35/9 11/36/9 

vt -0.43188 0.489483
vn -0.558261 -0.399777 -0.726996
vt -0.528908 0.55829
vt -0.545622 0.360475
f 13/37/10 14/38/10 4/39/10

vt 0.185435 0.62795
vn 1.41433e-016 0.788701 0.614777
v 15.29 10.7063 -11.8776
vt 0.601967 0.62795
v 13.7608 12.3083 -13.9328
vt 0.541764 0.730538
vt 0.245638 0.730538
f 13/40/11 16/41/11 17/42/11 14/43/11 

vt 0.601967 0.627024
vn 1.90905e-016 0.799791 0.600278
vt 0.185435 0.627024
vt 0.324487 0.395229
vt 0.462915 0.395229
f 16/44/12 13/45/12 11/46/12 8/47/12 

vt -0.185435 0.300789
vn 5.56745e-017 0.233286 -0.972408
vt -0.601967 0.300789
v 12.2007 7.70279 -12.5982
vt -0.480343 0.179184
vt -0.307059 0.179184
f 13/48/13 16/49/13 18/50/13 4/51/13 

vt -0.192635 0.681203
vn 0.558261 -0.399777 -0.726996
vt -0.0788927 0.552195
vt -0.0956066 0.750009
f 16/52/14 18/53/14 17/54/14

vt 0.2736 0.532154
vn 0.698587 -0.715407 -0.0129619
vt 0.37311 0.437971
vt 0.486996 0.562054
vt 0.456376 0.731296
f 8/55/15 5/56/15 18/57/15 16/58/15 

vt 0.462915 -0.0773463
vn 1.90343e-015 -0.830832 0.556523
vt 0.324487 -0.0773463
vt 0.393701 -0.195593
f 8/59/16 11/60/16 5/61/16

vt 0.480343 0.578731
f 5/7/2 6/8/2 18/62/2

f 6/8/2 4/5/2 18/62/2

f 4/5/2 6/8/2 2/6/2

vt 1.12812e-017 -0.371256
vn 1.19209e-017 0.5547 -0.83205
vt -0.0984727 -0.0162075
vt -0.688929 -0.0162075
vt -0.787402 -0.371256
f 3/63/17 2/64/17 6/65/17 7/66/17 

vt -0.541764 0.258339
vn 2.82563e-017 0.354928 -0.934894
vt -0.688929 0.140229
vt -0.0984727 0.140229
f 17/67/18 6/68/18 2/69/18

vt -0.393701 1.47181
f 6/68/18 17/67/18 15/70/18

vt -0.393701 0.926157
f 15/70/18 17/67/18 12/71/18

vt -0.0415668 0.765407
vn -0.861629 -0.345489 0.371798
vt -0.130034 0.873106
vt -0.289003 0.2078
vt -0.190861 0.140592
f 9/72/19 12/73/19 17/74/19 16/75/19 

vt 0.731543 0.42775
f 6/14/4 9/15/4 16/76/4

vt 0.326043 1.62583
f 15/77/4 9/15/4 6/14/4

f 9/15/4 15/77/4 1/13/4

f 8/12/4 6/14/4 16/76/4

vt -0.245638 0.258339
f 14/78/18 15/70/18 12/71/18

f 15/70/18 14/78/18 2/69/18

f 17/67/18 2/69/18 14/78/18

vt -0.541764 0.618105
vn 0 -0.27833 -0.960485
vt -0.480343 0.429326
vt -0.307059 0.429326
vt -0.245638 0.618105
f 17/79/20 18/80/20 4/81/20 14/82/20 

vn 0 0.799791 0.600278
f 4/5/21 5/7/21 18/62/21

v 0 0 -20
vt 0 0
vn 0 0 -1
vt 0 0.0787402
vt -0.787402 0.0787402
v 20 0 -20
vt -0.787402 0
f 19/83/22 3/84/22 7/85/22 20/86/22 

vn -1 0 -0
v 0 0 -0
f 19/86/23 21/83/23 3/85/23

vn 0 -1 -0
vt 0 0.787402
vt -0.787402 0.787402
v 20 0 -0
f 21/83/24 19/87/24 20/88/24 22/86/24 

vn 1 0 -0
vt 0.787402 0
vt 0.787402 0.0787402
f 22/83/25 20/89/25 7/90/25

vt 0.436772 -0.644764
vn 0.14762 0.984136 0.0984136
vt 1.09193 -0.200951
vt 0.382175 -0.200951
f 22/91/26 7/92/26 1/93/26

vt 0.787402 0.787402
vn 0 1 -0
vt 0.393701 0.19685
f 7/94/27 3/87/27 1/95/27

vn -0.14762 0.984136 0.0984136
vt 0.0545965 0.443813
vt -0.655158 0.443813
f 21/83/28 1/96/28 3/97/28

vn 0 0.928477 0.371391
vt 0.393701 0.212014
f 22/89/29 1/98/29 21/83/29

