solid chess_base
facet normal 0.0 1.0 0.0
  outer loop
    vertex 262.724415 0.0 1.9999999999999998
    vertex 280.224415 0.0 0.0
    vertex 245.22441500000005 0.0 0.0
  endloop
endfacet
facet normal 0.11336404025302715 -0.05668202012651356 0.9919353522139877
  outer loop
    vertex 280.224415 35.0 1.9999999999999998
    vertex 262.724415 0.0 1.9999999999999998
    vertex 280.224415 0.0 0.0
  endloop
endfacet
facet normal 1.0 0.0 0.0
  outer loop
    vertex 280.224415 35.0 1.9999999999999998
    vertex 280.224415 0.0 0.0
    vertex 280.224415 35.0 0.0
  endloop
endfacet
facet normal 0.0 1.0 0.0
  outer loop
    vertex 245.22441500000005 35.0 1.9999999999999998
    vertex 280.224415 35.0 0.0
    vertex 245.22441500000005 35.0 0.0
  endloop
endfacet
facet normal 0.0 1.0 0.0
  outer loop
    vertex 280.224415 35.0 0.0
    vertex 245.22441500000005 35.0 1.9999999999999998
    vertex 280.224415 35.0 1.9999999999999998
  endloop
endfacet
facet normal 0.0 0.0 -1.0
  outer loop
    vertex 280.224415 35.0 0.0
    vertex 245.22441500000005 0.0 0.0
    vertex 245.22441500000005 35.0 0.0
  endloop
endfacet
facet normal 0.0 0.0 -1.0
  outer loop
    vertex 245.22441500000005 0.0 0.0
    vertex 280.224415 35.0 0.0
    vertex 280.224415 0.0 0.0
  endloop
endfacet
facet normal -0.11336404025302713 -0.05668202012651356 0.9919353522139877
  outer loop
    vertex 262.724415 0.0 1.9999999999999998
    vertex 245.22441500000005 35.0 1.9999999999999998
    vertex 245.22441500000005 0.0 0.0
  endloop
endfacet
facet normal -1.0 0.0 0.0
  outer loop
    vertex 245.22441500000005 35.0 0.0
    vertex 245.22441500000005 0.0 0.0
    vertex 245.22441500000005 35.0 1.9999999999999998
  endloop
endfacet
facet normal 0.0 0.0 1.0
  outer loop
    vertex 280.224415 35.0 1.9999999999999998
    vertex 245.22441500000005 35.0 1.9999999999999998
    vertex 262.724415 0.0 1.9999999999999998
  endloop
endfacet
facet normal -0.7545995065805541 -0.5029680237683246 -0.42142941489052543
  outer loop
    vertex 262.724415 35.0 47.0
    vertex 275.34148946164373 26.558674000000003 34.48278852720194
    vertex 262.724415 20.28567764956683 64.56126499999999
  endloop
endfacet
facet normal -0.8447818580350777 -0.42239092901753894 0.32852627812475255
  outer loop
    vertex 245.22441500000005 35.0 1.9999999999999998
    vertex 262.724415 0.0 1.9999999999999998
    vertex 262.724415 14.096627241019894 20.12423502416843
  endloop
endfacet
facet normal 5.897177001699329e-17 0.5799843814143749 -0.8146275942511307
  outer loop
    vertex 266.7197786122618 32.00296622345029 32.87287871290582
    vertex 262.724415 14.096627241019894 20.12423502416843
    vertex 258.72905138773825 32.00296622345029 32.87287871290582
  endloop
endfacet
facet normal -3.139127792676867e-18 0.9782289004458826 -0.20752883735143754
  outer loop
    vertex 262.724415 35.0 47.0
    vertex 266.7197786122618 32.00296622345029 32.87287871290582
    vertex 258.72905138773825 32.00296622345029 32.87287871290582
  endloop
endfacet
facet normal -0.5373125108591245 0.8429550581472026 -0.026870720465027063
  outer loop
    vertex 262.724415 35.0 47.0
    vertex 258.72905138773825 32.00296622345029 32.87287871290582
    vertex 250.10734053835634 26.558674000000003 34.48278852720193
  endloop
endfacet
facet normal 0.43336978006895727 0.4565217253846853 -0.7770318834994956
  outer loop
    vertex 275.34148946164373 26.558674000000003 34.48278852720194
    vertex 262.724415 14.096627241019894 20.12423502416843
    vertex 266.7197786122618 32.00296622345029 32.87287871290582
  endloop
endfacet
facet normal -0.4724178198537233 0.8331559634791952 0.2875283360013568
  outer loop
    vertex 250.10734053835634 26.558674000000003 34.48278852720193
    vertex 258.72905138773825 32.00296622345029 32.87287871290582
    vertex 245.22441500000005 35.0 1.9999999999999998
  endloop
endfacet
facet normal 0.8447818580350778 -0.422390929017539 0.3285262781247523
  outer loop
    vertex 280.224415 35.0 1.9999999999999998
    vertex 266.7197786122618 32.00296622345029 32.87287871290582
    vertex 262.724415 14.096627241019894 20.12423502416843
  endloop
endfacet
facet normal 0.8447818580350779 -0.42239092901753894 0.3285262781247526
  outer loop
    vertex 280.224415 35.0 1.9999999999999998
    vertex 262.724415 14.096627241019894 20.12423502416843
    vertex 262.724415 0.0 1.9999999999999998
  endloop
endfacet
facet normal -0.47241781985372316 -0.8331559634791953 -0.28752833600135674
  outer loop
    vertex 275.34148946164373 26.558674000000003 34.48278852720194
    vertex 266.7197786122618 32.00296622345029 32.87287871290582
    vertex 280.224415 35.0 1.9999999999999998
  endloop
endfacet
facet normal 4.413438780000954e-18 0.9953211119315455 0.0966223791021104
  outer loop
    vertex 258.72905138773825 32.00296622345029 32.87287871290582
    vertex 280.224415 35.0 1.9999999999999998
    vertex 245.22441500000005 35.0 1.9999999999999998
  endloop
endfacet
facet normal 4.413438780000954e-18 0.9953211119315455 0.0966223791021104
  outer loop
    vertex 280.224415 35.0 1.9999999999999998
    vertex 258.72905138773825 32.00296622345029 32.87287871290582
    vertex 266.7197786122618 32.00296622345029 32.87287871290582
  endloop
endfacet
facet normal -0.8447818580350778 -0.422390929017539 0.3285262781247523
  outer loop
    vertex 245.22441500000005 35.0 1.9999999999999998
    vertex 262.724415 14.096627241019894 20.12423502416843
    vertex 258.72905138773825 32.00296622345029 32.87287871290582
  endloop
endfacet
facet normal -0.7371941957998527 0.6726446933429138 0.0639830774238473
  outer loop
    vertex 280.224415 35.0 1.9999999999999998
    vertex 262.724415 14.096627241019894 20.12423502416843
    vertex 275.34148946164373 26.558674000000003 34.48278852720194
  endloop
endfacet
facet normal -0.7371941957998526 -0.6726446933429139 -0.06398307742384746
  outer loop
    vertex 245.22441500000005 35.0 1.9999999999999998
    vertex 262.724415 14.096627241019894 20.12423502416843
    vertex 250.10734053835634 26.558674000000003 34.48278852720193
  endloop
endfacet
facet normal 4.383034301520994e-32 0.6550952099444369 0.7555463360429022
  outer loop
    vertex 280.224415 35.0 1.9999999999999998
    vertex 245.22441500000005 35.0 1.9999999999999998
    vertex 262.724415 14.096627241019894 20.12423502416843
  endloop
endfacet
facet normal 0.0 0.0 1.0
  outer loop
    vertex 265.9821470698106 18.658516005689194 33.48278852720193
    vertex 259.46668293018945 18.658516005689183 33.48278852720193
    vertex 262.724415 15.957164749051188 33.48278852720193
  endloop
endfacet
facet normal -7.809426783376935e-16 1.0 3.2775408582227686e-30
  outer loop
    vertex 259.46668293018945 18.658516005689183 33.48278852720193
    vertex 266.3180728195911 18.658516005689187 31.48278852720194
    vertex 259.130757180409 18.658516005689187 31.48278852720194
  endloop
endfacet
facet normal -7.809426783376935e-16 1.0 3.2775408582227686e-30
  outer loop
    vertex 266.3180728195911 18.658516005689187 31.48278852720194
    vertex 259.46668293018945 18.658516005689183 33.48278852720193
    vertex 265.9821470698106 18.658516005689194 33.48278852720193
  endloop
endfacet
facet normal 0.6346730911095643 0.7653928298560851 -0.10660151699823524
  outer loop
    vertex 250.10734053835634 26.558674000000003 34.48278852720193
    vertex 259.130757180409 18.658516005689187 31.48278852720194
    vertex 262.724415 14.096627241019894 20.12423502416843
  endloop
endfacet
facet normal 0.6346730911095643 0.7653928298560851 -0.10660151699823524
  outer loop
    vertex 259.130757180409 18.658516005689187 31.48278852720194
    vertex 250.10734053835634 26.558674000000003 34.48278852720193
    vertex 259.46668293018945 18.658516005689183 33.48278852720193
  endloop
endfacet
facet normal 0.6346730911095643 0.7653928298560851 -0.10660151699823524
  outer loop
    vertex 259.46668293018945 18.658516005689183 33.48278852720193
    vertex 250.10734053835634 26.558674000000003 34.48278852720193
    vertex 262.724415 15.957164749051188 33.48278852720193
  endloop
endfacet
facet normal 0.6346730911095643 0.7653928298560851 -0.10660151699823524
  outer loop
    vertex 262.724415 15.957164749051188 33.48278852720193
    vertex 250.10734053835634 26.558674000000003 34.48278852720193
    vertex 262.724415 20.28567764956683 64.56126499999999
  endloop
endfacet
facet normal 0.6346730911095643 0.7653928298560851 -0.10660151699823524
  outer loop
    vertex 262.724415 15.678611010787716 31.48278852720194
    vertex 262.724415 14.096627241019894 20.12423502416843
    vertex 259.130757180409 18.658516005689187 31.48278852720194
  endloop
endfacet
facet normal -0.43336978006895666 0.45652172538468566 -0.7770318834994958
  outer loop
    vertex 262.724415 14.096627241019894 20.12423502416843
    vertex 250.10734053835634 26.558674000000003 34.48278852720193
    vertex 258.72905138773825 32.00296622345029 32.87287871290582
  endloop
endfacet
facet normal -0.7545995065805541 0.5029680237683247 0.42142941489052554
  outer loop
    vertex 262.724415 35.0 47.0
    vertex 250.10734053835634 26.558674000000003 34.48278852720193
    vertex 262.724415 20.28567764956683 64.56126499999999
  endloop
endfacet
facet normal -0.6346730911095643 0.7653928298560849 -0.10660151699823524
  outer loop
    vertex 262.724415 20.28567764956683 64.56126499999999
    vertex 265.9821470698106 18.658516005689194 33.48278852720193
    vertex 262.724415 15.957164749051188 33.48278852720193
  endloop
endfacet
facet normal -0.6346730911095643 0.7653928298560849 -0.10660151699823524
  outer loop
    vertex 265.9821470698106 18.658516005689194 33.48278852720193
    vertex 262.724415 20.28567764956683 64.56126499999999
    vertex 275.34148946164373 26.558674000000003 34.48278852720194
  endloop
endfacet
facet normal -0.6346730911095643 0.7653928298560849 -0.10660151699823524
  outer loop
    vertex 262.724415 14.096627241019894 20.12423502416843
    vertex 266.3180728195911 18.658516005689187 31.48278852720194
    vertex 275.34148946164373 26.558674000000003 34.48278852720194
  endloop
endfacet
facet normal -0.6346730911095643 0.7653928298560849 -0.10660151699823524
  outer loop
    vertex 266.3180728195911 18.658516005689187 31.48278852720194
    vertex 262.724415 14.096627241019894 20.12423502416843
    vertex 262.724415 15.678611010787716 31.48278852720194
  endloop
endfacet
facet normal -0.6346730911095643 0.7653928298560849 -0.10660151699823524
  outer loop
    vertex 275.34148946164373 26.558674000000003 34.48278852720194
    vertex 266.3180728195911 18.658516005689187 31.48278852720194
    vertex 265.9821470698106 18.658516005689194 33.48278852720193
  endloop
endfacet
facet normal 0.0 0.0 -1.0
  outer loop
    vertex 266.3180728195911 18.658516005689187 31.48278852720194
    vertex 262.724415 15.678611010787716 31.48278852720194
    vertex 259.130757180409 18.658516005689187 31.48278852720194
  endloop
endfacet
facet normal 0.5373125108591243 0.8429550581472026 -0.026870720465027188
  outer loop
    vertex 262.724415 35.0 47.0
    vertex 275.34148946164373 26.558674000000003 34.48278852720194
    vertex 266.7197786122618 32.00296622345029 32.87287871290582
  endloop
endfacet
endsolid chess_base
