solid chess_base
facet normal -0.9381874008011434 0.32836559028039997 -0.10945519676013345
  outer loop
    vertex 192.96139899999997 17.5 24.500000000000004
    vertex 187.29963429411765 0.0 20.529411764705884
    vertex 186.836399 0.0 24.500000000000004
  endloop
endfacet
facet normal -0.9381874008011434 0.32836559028039997 -0.10945519676013345
  outer loop
    vertex 187.29963429411765 0.0 20.529411764705884
    vertex 192.96139899999997 17.5 24.500000000000004
    vertex 201.711399 35.0 1.9999999999999998
  endloop
endfacet
facet normal -1.519884957147682e-18 0.4678877204190328 0.8837879163470618
  outer loop
    vertex 201.711399 35.0 1.9999999999999998
    vertex 166.711399 35.0 1.9999999999999998
    vertex 184.211399 10.208333333333332 15.125
  endloop
endfacet
facet normal 0.4050287960396143 0.5775410610194497 -0.7088003930693245
  outer loop
    vertex 179.836399 26.249999999999996 49.50000000000001
    vertex 182.26695455555554 0.0 29.500000000000004
    vertex 177.648899 17.8125 41.375
  endloop
endfacet
facet normal 0.4050287960396143 0.5775410610194497 -0.7088003930693245
  outer loop
    vertex 182.26695455555554 0.0 29.500000000000004
    vertex 179.836399 26.249999999999996 49.50000000000001
    vertex 184.211399 26.249999999999996 52.00000000000001
  endloop
endfacet
facet normal 0.4050287960396143 0.5775410610194497 -0.7088003930693245
  outer loop
    vertex 182.26695455555554 0.0 29.500000000000004
    vertex 184.211399 26.249999999999996 52.00000000000001
    vertex 184.211399 0.0 30.61111111111112
  endloop
endfacet
facet normal 0.0 -1.0 0.0
  outer loop
    vertex 188.58639899999997 26.249999999999996 54.5
    vertex 188.58639899999997 26.249999999999996 49.50000000000001
    vertex 192.96139899999997 26.249999999999996 47.00000000000001
  endloop
endfacet
facet normal -0.7536983281288246 0.4885081756390533 -0.43965735807514783
  outer loop
    vertex 192.96139899999997 26.249999999999996 47.00000000000001
    vertex 190.77389899999997 17.8125 41.375
    vertex 188.58639899999997 26.249999999999996 54.5
  endloop
endfacet
facet normal 0.9679968981658009 0.25096215878372624 -2.9453219298318147e-16
  outer loop
    vertex 188.58639899999997 26.249999999999996 54.5
    vertex 190.77389899999997 17.8125 41.375
    vertex 188.58639899999997 26.249999999999996 49.50000000000001
  endloop
endfacet
facet normal -0.9679968981658009 0.25096215878372596 0.0
  outer loop
    vertex 179.836399 26.249999999999996 49.50000000000001
    vertex 177.648899 17.8125 41.375
    vertex 179.836399 26.249999999999996 54.5
  endloop
endfacet
facet normal 0.7536983281288243 0.48850817563905347 -0.4396573580751479
  outer loop
    vertex 179.836399 26.249999999999996 54.5
    vertex 177.648899 17.8125 41.375
    vertex 175.461399 26.249999999999996 47.00000000000001
  endloop
endfacet
facet normal 0.0 -1.0 0.0
  outer loop
    vertex 179.836399 26.249999999999996 54.5
    vertex 175.461399 26.249999999999996 47.00000000000001
    vertex 179.836399 26.249999999999996 49.50000000000001
  endloop
endfacet
facet normal -0.4050287960396144 0.5775410610194498 -0.7088003930693244
  outer loop
    vertex 192.96139899999997 26.249999999999996 47.00000000000001
    vertex 190.77389899999997 17.8125 41.375
    vertex 188.58639899999997 26.249999999999996 49.50000000000001
  endloop
endfacet
facet normal -0.8447818580350779 -0.4223909290175389 0.3285262781247524
  outer loop
    vertex 166.711399 35.0 1.9999999999999998
    vertex 184.211399 0.0 1.9999999999999998
    vertex 184.211399 10.208333333333332 15.125
  endloop
endfacet
facet normal 0.8447818580350779 -0.4223909290175389 0.3285262781247524
  outer loop
    vertex 201.711399 35.0 1.9999999999999998
    vertex 184.211399 10.208333333333332 15.125
    vertex 184.211399 0.0 1.9999999999999998
  endloop
endfacet
facet normal 5.01154013051446e-17 0.46788772041903276 0.8837879163470618
  outer loop
    vertex 181.12316370588235 0.0 20.529411764705884
    vertex 184.211399 10.208333333333332 15.125
    vertex 166.711399 35.0 1.9999999999999998
  endloop
endfacet
facet normal 5.01154013051446e-17 0.46788772041903276 0.8837879163470618
  outer loop
    vertex 184.211399 10.208333333333332 15.125
    vertex 181.12316370588235 0.0 20.529411764705884
    vertex 187.29963429411765 0.0 20.529411764705884
  endloop
endfacet
facet normal 5.01154013051446e-17 0.46788772041903276 0.8837879163470618
  outer loop
    vertex 184.211399 10.208333333333332 15.125
    vertex 187.29963429411765 0.0 20.529411764705884
    vertex 201.711399 35.0 1.9999999999999998
  endloop
endfacet
facet normal 0.0 -1.0 0.0
  outer loop
    vertex 188.58639899999997 26.249999999999996 49.50000000000001
    vertex 175.461399 26.249999999999996 47.00000000000001
    vertex 192.96139899999997 26.249999999999996 47.00000000000001
  endloop
endfacet
facet normal 0.0 -1.0 0.0
  outer loop
    vertex 175.461399 26.249999999999996 47.00000000000001
    vertex 188.58639899999997 26.249999999999996 49.50000000000001
    vertex 179.836399 26.249999999999996 49.50000000000001
  endloop
endfacet
facet normal 0.0 -1.0 0.0
  outer loop
    vertex 179.836399 26.249999999999996 49.50000000000001
    vertex 188.58639899999997 26.249999999999996 49.50000000000001
    vertex 184.211399 26.249999999999996 52.00000000000001
  endloop
endfacet
facet normal 0.0 1.0 0.0
  outer loop
    vertex 184.211399 0.0 1.9999999999999998
    vertex 201.711399 0.0 0.0
    vertex 166.711399 0.0 0.0
  endloop
endfacet
facet normal 0.11336404025302715 -0.05668202012651356 0.9919353522139877
  outer loop
    vertex 201.711399 35.0 1.9999999999999998
    vertex 184.211399 0.0 1.9999999999999998
    vertex 201.711399 0.0 0.0
  endloop
endfacet
facet normal 0.0 1.0 0.0
  outer loop
    vertex 181.586399 0.0 24.500000000000004
    vertex 187.29963429411765 0.0 20.529411764705884
    vertex 181.12316370588235 0.0 20.529411764705884
  endloop
endfacet
facet normal 0.0 1.0 0.0
  outer loop
    vertex 187.29963429411765 0.0 20.529411764705884
    vertex 181.586399 0.0 24.500000000000004
    vertex 186.836399 0.0 24.500000000000004
  endloop
endfacet
facet normal 0.0 1.0 0.0
  outer loop
    vertex 186.836399 0.0 24.500000000000004
    vertex 181.586399 0.0 24.500000000000004
    vertex 182.26695455555554 0.0 29.500000000000004
  endloop
endfacet
facet normal 0.0 1.0 0.0
  outer loop
    vertex 186.836399 0.0 24.500000000000004
    vertex 182.26695455555554 0.0 29.500000000000004
    vertex 186.15584344444443 0.0 29.500000000000004
  endloop
endfacet
facet normal 0.0 1.0 0.0
  outer loop
    vertex 186.15584344444443 0.0 29.500000000000004
    vertex 182.26695455555554 0.0 29.500000000000004
    vertex 184.211399 0.0 30.61111111111112
  endloop
endfacet
facet normal 0.0 1.0 0.0
  outer loop
    vertex 166.711399 35.0 1.9999999999999998
    vertex 201.711399 35.0 0.0
    vertex 166.711399 35.0 0.0
  endloop
endfacet
facet normal 0.0 1.0 0.0
  outer loop
    vertex 201.711399 35.0 0.0
    vertex 166.711399 35.0 1.9999999999999998
    vertex 201.711399 35.0 1.9999999999999998
  endloop
endfacet
facet normal 1.0 0.0 0.0
  outer loop
    vertex 201.711399 35.0 1.9999999999999998
    vertex 201.711399 0.0 0.0
    vertex 201.711399 35.0 0.0
  endloop
endfacet
facet normal 0.0 0.0 -1.0
  outer loop
    vertex 201.711399 35.0 0.0
    vertex 166.711399 0.0 0.0
    vertex 166.711399 35.0 0.0
  endloop
endfacet
facet normal 0.0 0.0 -1.0
  outer loop
    vertex 166.711399 0.0 0.0
    vertex 201.711399 35.0 0.0
    vertex 201.711399 0.0 0.0
  endloop
endfacet
facet normal -0.11336404025302713 -0.05668202012651356 0.9919353522139877
  outer loop
    vertex 184.211399 0.0 1.9999999999999998
    vertex 166.711399 35.0 1.9999999999999998
    vertex 166.711399 0.0 0.0
  endloop
endfacet
facet normal -1.0 0.0 0.0
  outer loop
    vertex 166.711399 35.0 0.0
    vertex 166.711399 0.0 0.0
    vertex 166.711399 35.0 1.9999999999999998
  endloop
endfacet
facet normal 0.0 0.0 1.0
  outer loop
    vertex 201.711399 35.0 1.9999999999999998
    vertex 166.711399 35.0 1.9999999999999998
    vertex 184.211399 0.0 1.9999999999999998
  endloop
endfacet
facet normal -0.4050287960396148 0.5775410610194496 -0.7088003930693243
  outer loop
    vertex 188.58639899999997 26.249999999999996 49.50000000000001
    vertex 184.211399 0.0 30.61111111111112
    vertex 184.211399 26.249999999999996 52.00000000000001
  endloop
endfacet
facet normal -0.4050287960396148 0.5775410610194496 -0.7088003930693243
  outer loop
    vertex 184.211399 0.0 30.61111111111112
    vertex 188.58639899999997 26.249999999999996 49.50000000000001
    vertex 186.15584344444443 0.0 29.500000000000004
  endloop
endfacet
facet normal -0.4050287960396148 0.5775410610194496 -0.7088003930693243
  outer loop
    vertex 186.15584344444443 0.0 29.500000000000004
    vertex 188.58639899999997 26.249999999999996 49.50000000000001
    vertex 190.77389899999997 17.8125 41.375
  endloop
endfacet
facet normal -0.9361645360146095 0.3276575876051131 -0.12742239517976617
  outer loop
    vertex 190.77389899999997 17.8125 41.375
    vertex 186.836399 0.0 24.500000000000004
    vertex 186.15584344444443 0.0 29.500000000000004
  endloop
endfacet
facet normal -0.9361645360146095 0.3276575876051131 -0.12742239517976617
  outer loop
    vertex 186.836399 0.0 24.500000000000004
    vertex 190.77389899999997 17.8125 41.375
    vertex 192.96139899999997 17.5 24.500000000000004
  endloop
endfacet
facet normal -0.9361645360146095 0.3276575876051131 -0.12742239517976617
  outer loop
    vertex 192.96139899999997 17.5 24.500000000000004
    vertex 190.77389899999997 17.8125 41.375
    vertex 192.96139899999997 26.249999999999996 47.00000000000001
  endloop
endfacet
facet normal 0.4050287960396142 0.5775410610194499 -0.7088003930693244
  outer loop
    vertex 179.836399 26.249999999999996 49.50000000000001
    vertex 177.648899 17.8125 41.375
    vertex 175.461399 26.249999999999996 47.00000000000001
  endloop
endfacet
facet normal 0.9361645360146095 0.3276575876051134 -0.12742239517976642
  outer loop
    vertex 175.461399 17.5 24.500000000000004
    vertex 182.26695455555554 0.0 29.500000000000004
    vertex 181.586399 0.0 24.500000000000004
  endloop
endfacet
facet normal 0.9361645360146095 0.3276575876051134 -0.12742239517976642
  outer loop
    vertex 182.26695455555554 0.0 29.500000000000004
    vertex 175.461399 17.5 24.500000000000004
    vertex 177.648899 17.8125 41.375
  endloop
endfacet
facet normal 0.9361645360146095 0.3276575876051134 -0.12742239517976642
  outer loop
    vertex 177.648899 17.8125 41.375
    vertex 175.461399 17.5 24.500000000000004
    vertex 175.461399 26.249999999999996 47.00000000000001
  endloop
endfacet
facet normal -3.0275209595121362e-18 -0.9320046715412961 0.3624462611549484
  outer loop
    vertex 192.96139899999997 26.249999999999996 47.00000000000001
    vertex 175.461399 17.5 24.500000000000004
    vertex 192.96139899999997 17.5 24.500000000000004
  endloop
endfacet
facet normal -3.0275209595121362e-18 -0.9320046715412961 0.3624462611549484
  outer loop
    vertex 175.461399 17.5 24.500000000000004
    vertex 192.96139899999997 26.249999999999996 47.00000000000001
    vertex 175.461399 26.249999999999996 47.00000000000001
  endloop
endfacet
facet normal 0.9381874008011432 0.32836559028039997 -0.10945519676013354
  outer loop
    vertex 166.711399 35.0 1.9999999999999998
    vertex 181.586399 0.0 24.500000000000004
    vertex 181.12316370588235 0.0 20.529411764705884
  endloop
endfacet
facet normal 0.9381874008011432 0.32836559028039997 -0.10945519676013354
  outer loop
    vertex 181.586399 0.0 24.500000000000004
    vertex 166.711399 35.0 1.9999999999999998
    vertex 175.461399 17.5 24.500000000000004
  endloop
endfacet
facet normal -2.6666943565162793e-17 -0.7893522173763263 -0.6139406135149206
  outer loop
    vertex 192.96139899999997 17.5 24.500000000000004
    vertex 166.711399 35.0 1.9999999999999998
    vertex 201.711399 35.0 1.9999999999999998
  endloop
endfacet
facet normal -2.6666943565162793e-17 -0.7893522173763263 -0.6139406135149206
  outer loop
    vertex 166.711399 35.0 1.9999999999999998
    vertex 192.96139899999997 17.5 24.500000000000004
    vertex 175.461399 17.5 24.500000000000004
  endloop
endfacet
endsolid chess_base
