solid chess_base
facet normal 0.7906853273937869 -0.32576490821080456 0.5183569596548174
  outer loop
    vertex 429.1117190836352 17.49999999999999 54.14285714285716
    vertex 421.7351304247207 16.148889471686758 64.54575792608468
    vertex 419.42795099999995 5.816231916364811 61.57142857142858
  endloop
endfacet
facet normal 0.7906853273937869 -0.32576490821080456 0.5183569596548174
  outer loop
    vertex 421.7351304247207 16.148889471686758 64.54575792608468
    vertex 429.1117190836352 17.49999999999999 54.14285714285716
    vertex 419.427951 16.500000000000053 68.2857142857143
  endloop
endfacet
facet normal 0.7906853273937869 -0.32576490821080456 0.5183569596548174
  outer loop
    vertex 419.427951 16.500000000000053 68.2857142857143
    vertex 429.1117190836352 17.49999999999999 54.14285714285716
    vertex 419.427951 27.183768083635293 75.00000000000001
  endloop
endfacet
facet normal 0.07900008300679594 -0.9918457157851183 0.10000531467689999
  outer loop
    vertex 412.25588127047706 5.119446830661078 22.857142857142858
    vertex 407.6661371574934 3.7023890051524835 12.428571428571432
    vertex 433.22556199484745 5.738186157493449 12.428571428571432
  endloop
endfacet
facet normal 0.23382843343655413 -0.8777908646241234 0.4180998226488997
  outer loop
    vertex 412.25588127047706 5.119446830661078 22.857142857142858
    vertex 433.22556199484745 5.738186157493449 12.428571428571432
    vertex 431.8085041693389 10.327930270477115 22.857142857142858
  endloop
endfacet
facet normal 0.0 -0.9423728202210675 0.3345645942244811
  outer loop
    vertex 407.6661371574934 3.7023890051524835 12.428571428571432
    vertex 401.92795099999995 0.0 2.0000000000000013
    vertex 436.92795099999995 0.0 2.0000000000000013
  endloop
endfacet
facet normal 0.06878049523752933 -0.8635388335611448 0.4995697412841753
  outer loop
    vertex 407.6661371574934 3.7023890051524835 12.428571428571432
    vertex 436.92795099999995 0.0 2.0000000000000013
    vertex 433.22556199484745 5.738186157493449 12.428571428571432
  endloop
endfacet
facet normal 0.427800640864308 -0.875188933183166 0.22590029417820395
  outer loop
    vertex 428.3072618279917 15.660985521547122 43.71428571428573
    vertex 415.76769696215564 6.8397459621556775 33.285714285714285
    vertex 430.0882050378444 13.839745962155668 33.285714285714285
  endloop
endfacet
facet normal 0.5425889748924846 -0.7861292809457421 0.29596952202017895
  outer loop
    vertex 419.42795099999995 10.816231916364812 54.14285714285716
    vertex 417.58893652154705 5.620689172008404 43.71428571428573
    vertex 429.1117190836352 17.49999999999999 54.14285714285716
  endloop
endfacet
facet normal 0.24157934115175816 -0.9068877365697539 0.3452449205825789
  outer loop
    vertex 430.0882050378444 13.839745962155668 33.285714285714285
    vertex 412.25588127047706 5.119446830661078 22.857142857142858
    vertex 431.8085041693389 10.327930270477115 22.857142857142858
  endloop
endfacet
facet normal 0.6697576802031012 -0.7149869329540613 -0.20054509596074702
  outer loop
    vertex 417.58893652154705 5.620689172008404 43.71428571428573
    vertex 415.76769696215564 6.8397459621556775 33.285714285714285
    vertex 428.3072618279917 15.660985521547122 43.71428571428573
  endloop
endfacet
facet normal 0.4391525238675483 -0.8984124663577627 0.000317920940908117
  outer loop
    vertex 415.76769696215564 6.8397459621556775 33.285714285714285
    vertex 412.25588127047706 5.119446830661078 22.857142857142858
    vertex 430.0882050378444 13.839745962155668 33.285714285714285
  endloop
endfacet
facet normal 0.681682423526624 -0.7277169633921811 0.07574361125620774
  outer loop
    vertex 429.1117190836352 17.49999999999999 54.14285714285716
    vertex 417.58893652154705 5.620689172008404 43.71428571428573
    vertex 428.3072618279917 15.660985521547122 43.71428571428573
  endloop
endfacet
facet normal -0.7906853273937895 -0.32576490821079795 0.5183569596548178
  outer loop
    vertex 417.12077157527926 16.148889471686758 64.54575792608468
    vertex 409.74418291636476 17.500000000000114 54.14285714285716
    vertex 419.42795099999995 5.816231916364811 61.57142857142858
  endloop
endfacet
facet normal -0.7906853273937895 -0.32576490821079795 0.5183569596548178
  outer loop
    vertex 409.74418291636476 17.500000000000114 54.14285714285716
    vertex 417.12077157527926 16.148889471686758 64.54575792608468
    vertex 419.427951 16.500000000000053 68.2857142857143
  endloop
endfacet
facet normal -0.7906853273937895 -0.32576490821079795 0.5183569596548178
  outer loop
    vertex 409.74418291636476 17.500000000000114 54.14285714285716
    vertex 419.427951 16.500000000000053 68.2857142857143
    vertex 419.427951 27.183768083635293 75.00000000000001
  endloop
endfacet
facet normal 4.041082156544661e-18 -0.27662442018843525 0.9609781111739291
  outer loop
    vertex 421.7351304247207 16.148889471686758 64.54575792608468
    vertex 417.12077157527926 16.148889471686758 64.54575792608468
    vertex 419.42795099999995 5.816231916364811 61.57142857142858
  endloop
endfacet
facet normal 1.5052117835560983e-18 -0.9956221045085775 0.09346991502035065
  outer loop
    vertex 419.427951 16.500000000000053 68.2857142857143
    vertex 417.12077157527926 16.148889471686758 64.54575792608468
    vertex 421.7351304247207 16.148889471686758 64.54575792608468
  endloop
endfacet
facet normal -0.6836047286605959 0.72976908327459 0.011029961443170616
  outer loop
    vertex 419.427951 27.183768083635293 75.00000000000001
    vertex 421.2669654784529 29.37931082799177 43.71428571428573
    vertex 410.54864017200833 19.33901447845305 43.71428571428573
  endloop
endfacet
facet normal -0.4968947245416447 -0.7199252299349589 -0.4845650586100691
  outer loop
    vertex 419.42795099999995 5.816231916364811 61.57142857142858
    vertex 409.74418291636476 17.500000000000114 54.14285714285716
    vertex 419.42795099999995 10.816231916364812 54.14285714285716
  endloop
endfacet
facet normal 0.0 0.0 1.0
  outer loop
    vertex 417.58893652154705 5.620689172008404 43.71428571428573
    vertex 421.2669654784529 29.37931082799177 43.71428571428573
    vertex 410.54864017200833 19.33901447845305 43.71428571428573
  endloop
endfacet
facet normal 0.0 0.0 1.0
  outer loop
    vertex 421.2669654784529 29.37931082799177 43.71428571428573
    vertex 417.58893652154705 5.620689172008404 43.71428571428573
    vertex 428.3072618279917 15.660985521547122 43.71428571428573
  endloop
endfacet
facet normal -0.8799458298818867 -0.4515915226911061 -0.147514179342212
  outer loop
    vertex 410.54864017200833 19.33901447845305 43.71428571428573
    vertex 417.58893652154705 5.620689172008404 43.71428571428573
    vertex 409.74418291636476 17.500000000000114 54.14285714285716
  endloop
endfacet
facet normal 0.49689472454163497 -0.7199252299349637 -0.48456505861007215
  outer loop
    vertex 419.42795099999995 5.816231916364811 61.57142857142858
    vertex 419.42795099999995 10.816231916364812 54.14285714285716
    vertex 429.1117190836352 17.49999999999999 54.14285714285716
  endloop
endfacet
facet normal 0.8726559885900957 0.06220540457878521 0.48435731977439167
  outer loop
    vertex 436.92795099999995 35.0 2.0000000000000013
    vertex 431.18976484250646 34.29761099484748 12.428571428571432
    vertex 433.22556199484745 5.738186157493449 12.428571428571432
  endloop
endfacet
facet normal 0.9920930091611715 0.0707192156148063 0.10368343028834638
  outer loop
    vertex 431.18976484250646 34.29761099484748 12.428571428571432
    vertex 431.8085041693389 10.327930270477115 22.857142857142858
    vertex 433.22556199484745 5.738186157493449 12.428571428571432
  endloop
endfacet
facet normal 0.0 0.0 1.0
  outer loop
    vertex 407.6661371574934 3.7023890051524835 12.428571428571432
    vertex 431.18976484250646 34.29761099484748 12.428571428571432
    vertex 405.63034000515245 29.261813842506516 12.428571428571432
  endloop
endfacet
facet normal 0.0 0.0 1.0
  outer loop
    vertex 431.18976484250646 34.29761099484748 12.428571428571432
    vertex 407.6661371574934 3.7023890051524835 12.428571428571432
    vertex 433.22556199484745 5.738186157493449 12.428571428571432
  endloop
endfacet
facet normal -0.5059896081366544 -0.7331023393707832 0.45446174367794706
  outer loop
    vertex 409.74418291636476 17.500000000000114 54.14285714285716
    vertex 417.58893652154705 5.620689172008404 43.71428571428573
    vertex 419.42795099999995 10.816231916364812 54.14285714285716
  endloop
endfacet
facet normal 0.868391019035159 0.3509560520212609 0.35032397521255676
  outer loop
    vertex 426.6000207295229 32.88055316933893 22.857142857142858
    vertex 423.08820503784443 31.160254037844446 33.285714285714285
    vertex 430.0882050378444 13.839745962155668 33.285714285714285
  endloop
endfacet
facet normal -0.6641301454550534 0.7089793664437701 0.23723281361320966
  outer loop
    vertex 421.2669654784529 29.37931082799177 43.71428571428573
    vertex 408.7676969621556 21.160254037844457 33.285714285714285
    vertex 410.54864017200833 19.33901447845305 43.71428571428573
  endloop
endfacet
facet normal 0.8664034704743201 0.44464153270534207 0.22724201579703177
  outer loop
    vertex 423.08820503784443 31.160254037844446 33.285714285714285
    vertex 421.2669654784529 29.37931082799177 43.71428571428573
    vertex 428.3072618279917 15.660985521547122 43.71428571428573
  endloop
endfacet
facet normal 0.9708560184641212 0.22421726808863984 0.08464755225558108
  outer loop
    vertex 426.6000207295229 32.88055316933893 22.857142857142858
    vertex 430.0882050378444 13.839745962155668 33.285714285714285
    vertex 431.8085041693389 10.327930270477115 22.857142857142858
  endloop
endfacet
facet normal -0.5720679387210378 0.8192303536297262 0.039998764720639644
  outer loop
    vertex 421.2669654784529 29.37931082799177 43.71428571428573
    vertex 423.08820503784443 31.160254037844446 33.285714285714285
    vertex 408.7676969621556 21.160254037844457 33.285714285714285
  endloop
endfacet
facet normal 0.272680602255709 0.8180418067671094 -0.5064117806041514
  outer loop
    vertex 419.427951 27.183768083635293 75.00000000000001
    vertex 415.5544437665459 15.563246383273029 54.14285714285716
    vertex 409.74418291636476 17.500000000000114 54.14285714285716
  endloop
endfacet
facet normal -0.8850866696248968 -0.4542298210597326 0.10147342958800802
  outer loop
    vertex 410.54864017200833 19.33901447845305 43.71428571428573
    vertex 415.76769696215564 6.8397459621556775 33.285714285714285
    vertex 417.58893652154705 5.620689172008404 43.71428571428573
  endloop
endfacet
facet normal 0.9231707699335019 0.37309502477037004 0.09249774068582563
  outer loop
    vertex 423.08820503784443 31.160254037844446 33.285714285714285
    vertex 428.3072618279917 15.660985521547122 43.71428571428573
    vertex 430.0882050378444 13.839745962155668 33.285714285714285
  endloop
endfacet
facet normal 0.0 0.0 -1.0
  outer loop
    vertex 415.5544437665459 15.563246383273029 54.14285714285716
    vertex 419.42795099999995 10.816231916364812 54.14285714285716
    vertex 409.74418291636476 17.500000000000114 54.14285714285716
  endloop
endfacet
facet normal 0.0 0.0 -1.0
  outer loop
    vertex 419.42795099999995 10.816231916364812 54.14285714285716
    vertex 415.5544437665459 15.563246383273029 54.14285714285716
    vertex 419.42795099999995 14.272077305454973 54.14285714285716
  endloop
endfacet
facet normal 0.0 0.0 -1.0
  outer loop
    vertex 419.42795099999995 10.816231916364812 54.14285714285716
    vertex 419.42795099999995 14.272077305454973 54.14285714285716
    vertex 429.1117190836352 17.49999999999999 54.14285714285716
  endloop
endfacet
facet normal 0.0 0.0 -1.0
  outer loop
    vertex 429.1117190836352 17.49999999999999 54.14285714285716
    vertex 419.42795099999995 14.272077305454973 54.14285714285716
    vertex 423.30145823345407 15.563246383272983 54.14285714285716
  endloop
endfacet
facet normal -0.27268060225569846 0.818041806767113 -0.5064117806041515
  outer loop
    vertex 419.427951 27.183768083635293 75.00000000000001
    vertex 429.1117190836352 17.49999999999999 54.14285714285716
    vertex 423.30145823345407 15.563246383272983 54.14285714285716
  endloop
endfacet
facet normal 0.885391394973729 0.20447938313680633 0.41745689547361103
  outer loop
    vertex 431.18976484250646 34.29761099484748 12.428571428571432
    vertex 426.6000207295229 32.88055316933893 22.857142857142858
    vertex 431.8085041693389 10.327930270477115 22.857142857142858
  endloop
endfacet
facet normal -0.193082364441535 0.9799986044052362 0.048186470149367396
  outer loop
    vertex 426.6000207295229 32.88055316933893 22.857142857142858
    vertex 431.18976484250646 34.29761099484748 12.428571428571432
    vertex 405.63034000515245 29.261813842506516 12.428571428571432
  endloop
endfacet
facet normal -0.8412146584717874 -0.4111936935602954 0.3511091635779904
  outer loop
    vertex 408.7676969621556 21.160254037844457 33.285714285714285
    vertex 412.25588127047706 5.119446830661078 22.857142857142858
    vertex 415.76769696215564 6.8397459621556775 33.285714285714285
  endloop
endfacet
facet normal -0.9918457157851186 -0.079000083006796 0.1000053146768981
  outer loop
    vertex 405.63034000515245 29.261813842506516 12.428571428571432
    vertex 407.6661371574934 3.7023890051524835 12.428571428571432
    vertex 407.04739783066105 24.67206972952289 22.857142857142858
  endloop
endfacet
facet normal -0.9637582697639492 -0.25672867594370136 0.07252850756628718
  outer loop
    vertex 407.04739783066105 24.67206972952289 22.857142857142858
    vertex 412.25588127047706 5.119446830661078 22.857142857142858
    vertex 408.7676969621556 21.160254037844457 33.285714285714285
  endloop
endfacet
facet normal -0.5368559292588284 0.7688049670432461 0.34745450618645524
  outer loop
    vertex 423.08820503784443 31.160254037844446 33.285714285714285
    vertex 407.04739783066105 24.67206972952289 22.857142857142858
    vertex 408.7676969621556 21.160254037844457 33.285714285714285
  endloop
endfacet
facet normal 0.8799458298818877 0.4515915226911058 -0.14751417934220512
  outer loop
    vertex 421.2669654784529 29.37931082799177 43.71428571428573
    vertex 429.1117190836352 17.49999999999999 54.14285714285716
    vertex 428.3072618279917 15.660985521547122 43.71428571428573
  endloop
endfacet
facet normal -0.7626164361734815 0.6445229881316444 0.054829636583824795
  outer loop
    vertex 419.427951 27.183768083635293 75.00000000000001
    vertex 410.54864017200833 19.33901447845305 43.71428571428573
    vertex 409.74418291636476 17.500000000000114 54.14285714285716
  endloop
endfacet
facet normal -0.9423728202210667 -7.66114009676217e-18 0.33456459422448304
  outer loop
    vertex 401.92795099999995 35.0 2.0000000000000013
    vertex 401.92795099999995 0.0 2.0000000000000013
    vertex 405.63034000515245 29.261813842506516 12.428571428571432
  endloop
endfacet
facet normal -0.8777908646241237 -0.2338284334365541 0.41809982264889833
  outer loop
    vertex 407.04739783066105 24.67206972952289 22.857142857142858
    vertex 407.6661371574934 3.7023890051524835 12.428571428571432
    vertex 412.25588127047706 5.119446830661078 22.857142857142858
  endloop
endfacet
facet normal -0.8957792022284486 -0.4378653594172527 0.07650848238832161
  outer loop
    vertex 408.7676969621556 21.160254037844457 33.285714285714285
    vertex 415.76769696215564 6.8397459621556775 33.285714285714285
    vertex 410.54864017200833 19.33901447845305 43.71428571428573
  endloop
endfacet
facet normal -0.35187856789727 0.83817540654514 0.41670548510603506
  outer loop
    vertex 426.6000207295229 32.88055316933893 22.857142857142858
    vertex 405.63034000515245 29.261813842506516 12.428571428571432
    vertex 407.04739783066105 24.67206972952289 22.857142857142858
  endloop
endfacet
facet normal 0.0 0.9977395169457097 0.06720012146523191
  outer loop
    vertex 431.18976484250646 34.29761099484748 12.428571428571432
    vertex 436.92795099999995 35.0 2.0000000000000013
    vertex 401.92795099999995 35.0 2.0000000000000013
  endloop
endfacet
facet normal -1.0 0.0 4.2299497238218434e-15
  outer loop
    vertex 401.92795099999995 35.0 2.0000000000000013
    vertex 401.92795099999995 0.0 0.0
    vertex 401.92795099999995 0.0 2.0000000000000013
  endloop
endfacet
facet normal -1.0 0.0 4.2299497238218434e-15
  outer loop
    vertex 401.92795099999995 0.0 0.0
    vertex 401.92795099999995 35.0 2.0000000000000013
    vertex 401.92795099999995 35.0 0.0
  endloop
endfacet
facet normal 0.0 0.0 1.0
  outer loop
    vertex 436.92795099999995 0.0 2.0000000000000013
    vertex 401.92795099999995 35.0 2.0000000000000013
    vertex 401.92795099999995 0.0 2.0000000000000013
  endloop
endfacet
facet normal 0.0 0.0 1.0
  outer loop
    vertex 401.92795099999995 35.0 2.0000000000000013
    vertex 436.92795099999995 0.0 2.0000000000000013
    vertex 436.92795099999995 35.0 2.0000000000000013
  endloop
endfacet
facet normal 0.0 1.0 0.0
  outer loop
    vertex 401.92795099999995 35.0 2.0000000000000013
    vertex 436.92795099999995 35.0 0.0
    vertex 401.92795099999995 35.0 0.0
  endloop
endfacet
facet normal 0.0 1.0 0.0
  outer loop
    vertex 436.92795099999995 35.0 0.0
    vertex 401.92795099999995 35.0 2.0000000000000013
    vertex 436.92795099999995 35.0 2.0000000000000013
  endloop
endfacet
facet normal 0.0 0.0 1.0
  outer loop
    vertex 415.76769696215564 6.8397459621556775 33.285714285714285
    vertex 423.08820503784443 31.160254037844446 33.285714285714285
    vertex 408.7676969621556 21.160254037844457 33.285714285714285
  endloop
endfacet
facet normal 0.0 0.0 1.0
  outer loop
    vertex 423.08820503784443 31.160254037844446 33.285714285714285
    vertex 415.76769696215564 6.8397459621556775 33.285714285714285
    vertex 430.0882050378444 13.839745962155668 33.285714285714285
  endloop
endfacet
facet normal -0.3869959252057394 0.9218250173035043 0.021743765716818377
  outer loop
    vertex 423.08820503784443 31.160254037844446 33.285714285714285
    vertex 426.6000207295229 32.88055316933893 22.857142857142858
    vertex 407.04739783066105 24.67206972952289 22.857142857142858
  endloop
endfacet
facet normal 0.7935009359572301 0.6020418352530894 0.08889259384274853
  outer loop
    vertex 421.2669654784529 29.37931082799177 43.71428571428573
    vertex 419.427951 27.183768083635293 75.00000000000001
    vertex 429.1117190836352 17.49999999999999 54.14285714285716
  endloop
endfacet
facet normal -0.8635388335611439 -0.06878049523752927 0.4995697412841767
  outer loop
    vertex 405.63034000515245 29.261813842506516 12.428571428571432
    vertex 401.92795099999995 0.0 2.0000000000000013
    vertex 407.6661371574934 3.7023890051524835 12.428571428571432
  endloop
endfacet
facet normal 0.0 0.0 -1.0
  outer loop
    vertex 436.92795099999995 35.0 0.0
    vertex 401.92795099999995 0.0 0.0
    vertex 401.92795099999995 35.0 0.0
  endloop
endfacet
facet normal 0.0 0.0 -1.0
  outer loop
    vertex 401.92795099999995 0.0 0.0
    vertex 436.92795099999995 35.0 0.0
    vertex 436.92795099999995 0.0 0.0
  endloop
endfacet
facet normal 0.0 -1.0 0.0
  outer loop
    vertex 436.92795099999995 0.0 2.0000000000000013
    vertex 401.92795099999995 0.0 0.0
    vertex 436.92795099999995 0.0 0.0
  endloop
endfacet
facet normal 0.0 -1.0 0.0
  outer loop
    vertex 401.92795099999995 0.0 0.0
    vertex 436.92795099999995 0.0 2.0000000000000013
    vertex 401.92795099999995 0.0 2.0000000000000013
  endloop
endfacet
facet normal 0.9423728202210677 7.661140096762175e-18 0.33456459422448087
  outer loop
    vertex 436.92795099999995 35.0 2.0000000000000013
    vertex 433.22556199484745 5.738186157493449 12.428571428571432
    vertex 436.92795099999995 0.0 2.0000000000000013
  endloop
endfacet
facet normal 0.0 0.0 1.0
  outer loop
    vertex 412.25588127047706 5.119446830661078 22.857142857142858
    vertex 426.6000207295229 32.88055316933893 22.857142857142858
    vertex 407.04739783066105 24.67206972952289 22.857142857142858
  endloop
endfacet
facet normal 0.0 0.0 1.0
  outer loop
    vertex 426.6000207295229 32.88055316933893 22.857142857142858
    vertex 412.25588127047706 5.119446830661078 22.857142857142858
    vertex 431.8085041693389 10.327930270477115 22.857142857142858
  endloop
endfacet
facet normal 1.0 0.0 -2.819966482547896e-15
  outer loop
    vertex 436.92795099999995 35.0 0.0
    vertex 436.92795099999995 0.0 2.0000000000000013
    vertex 436.92795099999995 0.0 0.0
  endloop
endfacet
facet normal 1.0 0.0 -2.819966482547896e-15
  outer loop
    vertex 436.92795099999995 0.0 2.0000000000000013
    vertex 436.92795099999995 35.0 0.0
    vertex 436.92795099999995 35.0 2.0000000000000013
  endloop
endfacet
facet normal -0.1651377797529678 0.83816455304229 0.5198169829100225
  outer loop
    vertex 431.18976484250646 34.29761099484748 12.428571428571432
    vertex 401.92795099999995 35.0 2.0000000000000013
    vertex 405.63034000515245 29.261813842506516 12.428571428571432
  endloop
endfacet
endsolid chess_base
