solid chess_base
facet normal 0.36745216973970046 0.8726989031317882 0.3215206485222376
  outer loop
    vertex 495.52415799999994 8.75 61.250000000000014
    vertex 495.52415799999994 26.249999999999996 13.750000000000009
    vertex 486.77415799999994 17.5 47.50000000000002
  endloop
endfacet
facet normal 0.0 -1.0 0.0
  outer loop
    vertex 478.02415799999994 8.75 61.250000000000014
    vertex 486.77415799999994 8.75 13.750000000000009
    vertex 495.52415799999994 8.75 61.250000000000014
  endloop
endfacet
facet normal 0.8602680757063526 0.4301340378531762 -0.2737216604520213
  outer loop
    vertex 495.52415799999994 8.75 61.250000000000014
    vertex 486.77415799999994 35.0 75.00000000000001
    vertex 504.27415799999994 0.0 75.00000000000001
  endloop
endfacet
facet normal 0.8602680757063526 0.4301340378531762 -0.2737216604520213
  outer loop
    vertex 486.77415799999994 35.0 75.00000000000001
    vertex 495.52415799999994 8.75 61.250000000000014
    vertex 486.77415799999994 24.66154853726352 58.75386198712841
  endloop
endfacet
facet normal 0.8491419024899892 0.4955997810642469 0.1825893930236699
  outer loop
    vertex 495.52415799999994 26.249999999999996 13.750000000000009
    vertex 486.77415799999994 24.66154853726352 58.75386198712841
    vertex 495.52415799999994 8.75 61.250000000000014
  endloop
endfacet
facet normal -7.220583325534428e-18 -0.1549804233453714 -0.9879175412855516
  outer loop
    vertex 495.52415799999994 8.75 61.250000000000014
    vertex 478.02415799999994 8.75 61.250000000000014
    vertex 486.77415799999994 24.66154853726352 58.75386198712841
  endloop
endfacet
facet normal -0.945870828018371 0.27380471337373874 -0.17423936305601567
  outer loop
    vertex 495.52415799999994 26.249999999999996 13.750000000000009
    vertex 486.77415799999994 17.5 47.50000000000002
    vertex 486.77415799999994 24.66154853726352 58.75386198712841
  endloop
endfacet
facet normal 0.8825284847693824 -0.4412642423846913 -0.16257103666804407
  outer loop
    vertex 495.52415799999994 26.249999999999996 13.750000000000009
    vertex 495.52415799999994 8.75 61.250000000000014
    vertex 486.77415799999994 8.75 13.750000000000009
  endloop
endfacet
facet normal -0.8602680757063526 0.4301340378531764 -0.27372166045202095
  outer loop
    vertex 486.77415799999994 8.75 13.750000000000009
    vertex 504.27415799999994 35.0 0.0
    vertex 486.77415799999994 0.0 0.0
  endloop
endfacet
facet normal -0.8602680757063526 0.4301340378531764 -0.27372166045202095
  outer loop
    vertex 504.27415799999994 35.0 0.0
    vertex 486.77415799999994 8.75 13.750000000000009
    vertex 495.52415799999994 26.249999999999996 13.750000000000009
  endloop
endfacet
facet normal 0.8061420386623255 0.5727851327337573 -0.14849984922727044
  outer loop
    vertex 486.77415799999994 17.5 47.50000000000002
    vertex 495.52415799999994 8.75 61.250000000000014
    vertex 486.77415799999994 8.75 13.750000000000009
  endloop
endfacet
facet normal 5.576290187258701e-33 -0.8436614877321075 -0.5368754921931593
  outer loop
    vertex 504.27415799999994 0.0 75.00000000000001
    vertex 478.02415799999994 8.75 61.250000000000014
    vertex 495.52415799999994 8.75 61.250000000000014
  endloop
endfacet
facet normal 5.576290187258701e-33 -0.8436614877321075 -0.5368754921931593
  outer loop
    vertex 478.02415799999994 8.75 61.250000000000014
    vertex 504.27415799999994 0.0 75.00000000000001
    vertex 469.27415799999994 0.0 75.00000000000001
  endloop
endfacet
facet normal -2.690719115298052e-18 0.8436614877321078 0.5368754921931591
  outer loop
    vertex 478.02415799999994 26.249999999999996 13.750000000000009
    vertex 504.27415799999994 35.0 0.0
    vertex 469.27415799999994 35.0 0.0
  endloop
endfacet
facet normal -2.690719115298052e-18 0.8436614877321078 0.5368754921931591
  outer loop
    vertex 504.27415799999994 35.0 0.0
    vertex 478.02415799999994 26.249999999999996 13.750000000000009
    vertex 495.52415799999994 26.249999999999996 13.750000000000009
  endloop
endfacet
facet normal 0.0 0.0 1.0
  outer loop
    vertex 504.27415799999994 35.0 0.0
    vertex 469.27415799999994 35.0 0.0
    vertex 486.77415799999994 0.0 0.0
  endloop
endfacet
facet normal 8.969063717659952e-18 -0.8436614877321075 -0.5368754921931593
  outer loop
    vertex 478.02415799999994 8.75 61.250000000000014
    vertex 486.77415799999994 17.5 47.50000000000002
    vertex 495.52415799999994 8.75 61.250000000000014
  endloop
endfacet
facet normal 0.8602680757063526 0.43013403785317617 -0.2737216604520213
  outer loop
    vertex 486.77415799999994 24.66154853726352 58.75386198712841
    vertex 495.52415799999994 8.75 61.250000000000014
    vertex 486.77415799999994 17.5 47.50000000000002
  endloop
endfacet
facet normal -0.8884752090386879 0.4442376045193441 -0.11517271228279277
  outer loop
    vertex 495.52415799999994 26.249999999999996 13.750000000000009
    vertex 486.77415799999994 8.75 13.750000000000009
    vertex 486.77415799999994 17.5 47.50000000000002
  endloop
endfacet
facet normal 0.8884752090386879 0.44423760451934374 -0.11517271228279284
  outer loop
    vertex 478.02415799999994 26.249999999999996 13.750000000000009
    vertex 486.77415799999994 17.5 47.50000000000002
    vertex 486.77415799999994 8.75 13.750000000000009
  endloop
endfacet
facet normal 0.0 0.0 1.0
  outer loop
    vertex 504.27415799999994 0.0 75.00000000000001
    vertex 486.77415799999994 35.0 75.00000000000001
    vertex 469.27415799999994 0.0 75.00000000000001
  endloop
endfacet
facet normal -0.8602680757063526 0.4301340378531763 -0.2737216604520213
  outer loop
    vertex 486.77415799999994 24.66154853726352 58.75386198712841
    vertex 486.77415799999994 17.5 47.50000000000002
    vertex 478.02415799999994 8.75 61.250000000000014
  endloop
endfacet
facet normal 2.36420717636373e-18 0.9993776813988229 0.03527392694205182
  outer loop
    vertex 486.77415799999994 24.66154853726352 58.75386198712841
    vertex 495.52415799999994 26.249999999999996 13.750000000000009
    vertex 478.02415799999994 26.249999999999996 13.750000000000009
  endloop
endfacet
facet normal 0.0 0.0 1.0
  outer loop
    vertex 495.52415799999994 26.249999999999996 13.750000000000009
    vertex 478.02415799999994 26.249999999999996 13.750000000000009
    vertex 486.77415799999994 8.75 13.750000000000009
  endloop
endfacet
facet normal -1.3033169177477151e-31 0.9679968981658009 0.25096215878372596
  outer loop
    vertex 486.77415799999994 17.5 47.50000000000002
    vertex 495.52415799999994 26.249999999999996 13.750000000000009
    vertex 478.02415799999994 26.249999999999996 13.750000000000009
  endloop
endfacet
facet normal 0.945870828018371 0.27380471337373874 -0.17423936305601567
  outer loop
    vertex 478.02415799999994 26.249999999999996 13.750000000000009
    vertex 486.77415799999994 24.66154853726352 58.75386198712841
    vertex 486.77415799999994 17.5 47.50000000000002
  endloop
endfacet
facet normal -0.8061420386623253 0.5727851327337575 -0.14849984922727033
  outer loop
    vertex 486.77415799999994 17.5 47.50000000000002
    vertex 486.77415799999994 8.75 13.750000000000009
    vertex 478.02415799999994 8.75 61.250000000000014
  endloop
endfacet
facet normal 0.8602680757063527 0.4301340378531762 -0.27372166045202106
  outer loop
    vertex 469.27415799999994 35.0 0.0
    vertex 486.77415799999994 8.75 13.750000000000009
    vertex 486.77415799999994 0.0 0.0
  endloop
endfacet
facet normal 0.8602680757063527 0.4301340378531762 -0.27372166045202106
  outer loop
    vertex 486.77415799999994 8.75 13.750000000000009
    vertex 469.27415799999994 35.0 0.0
    vertex 478.02415799999994 26.249999999999996 13.750000000000009
  endloop
endfacet
facet normal -0.3674521697397006 0.8726989031317883 0.3215206485222376
  outer loop
    vertex 478.02415799999994 8.75 61.250000000000014
    vertex 486.77415799999994 17.5 47.50000000000002
    vertex 478.02415799999994 26.249999999999996 13.750000000000009
  endloop
endfacet
facet normal -0.8602680757063526 0.4301340378531762 -0.27372166045202123
  outer loop
    vertex 486.77415799999994 35.0 75.00000000000001
    vertex 478.02415799999994 8.75 61.250000000000014
    vertex 469.27415799999994 0.0 75.00000000000001
  endloop
endfacet
facet normal -0.8602680757063526 0.4301340378531762 -0.27372166045202123
  outer loop
    vertex 478.02415799999994 8.75 61.250000000000014
    vertex 486.77415799999994 35.0 75.00000000000001
    vertex 486.77415799999994 24.66154853726352 58.75386198712841
  endloop
endfacet
facet normal 0.8825284847693826 0.44126424238469103 0.16257103666804404
  outer loop
    vertex 478.02415799999994 26.249999999999996 13.750000000000009
    vertex 478.02415799999994 8.75 61.250000000000014
    vertex 486.77415799999994 8.75 13.750000000000009
  endloop
endfacet
facet normal 0.849141902489989 -0.49559978106424724 -0.18258939302366997
  outer loop
    vertex 478.02415799999994 26.249999999999996 13.750000000000009
    vertex 486.77415799999994 24.66154853726352 58.75386198712841
    vertex 478.02415799999994 8.75 61.250000000000014
  endloop
endfacet
endsolid chess_base
