solid chess_base
facet normal -0.8285171561084911 -0.5523447707389941 -0.09205746178983214
  outer loop
    vertex 111.49290400000002 19.999999999999996 1.9999999999999998
    vertex 121.49290400000002 5.0 1.9999999999999998
    vertex 113.99411178865651 14.99758442268706 9.503623365969407
  endloop
endfacet
facet normal 0.8285171561084911 -0.5523447707389941 -0.0920574617898323
  outer loop
    vertex 131.49290400000004 19.999999999999996 1.9999999999999998
    vertex 128.99169621134357 14.99758442268706 9.503623365969405
    vertex 121.49290400000002 5.0 1.9999999999999998
  endloop
endfacet
facet normal 1.1920860109630002e-17 0.8320502943378437 0.554700196225229
  outer loop
    vertex 113.99411178865651 14.99758442268706 9.503623365969407
    vertex 131.49290400000004 19.999999999999996 1.9999999999999998
    vertex 111.49290400000002 19.999999999999996 1.9999999999999998
  endloop
endfacet
facet normal 1.1920860109630002e-17 0.8320502943378437 0.554700196225229
  outer loop
    vertex 131.49290400000004 19.999999999999996 1.9999999999999998
    vertex 113.99411178865651 14.99758442268706 9.503623365969407
    vertex 128.99169621134357 14.99758442268706 9.503623365969405
  endloop
endfacet
facet normal 2.8256320425425795e-17 0.9348935439723605 0.35492824829646946
  outer loop
    vertex 121.49290400000002 2.9931278651415596 41.12378600000001
    vertex 128.99169621134357 14.99758442268706 9.503623365969405
    vertex 113.99411178865651 14.99758442268706 9.503623365969407
  endloop
endfacet
facet normal -0.8103016213391722 -0.5852435921074753 -0.03002033231407999
  outer loop
    vertex 113.99411178865651 14.99758442268706 9.503623365969407
    vertex 121.49290400000002 5.0 1.9999999999999998
    vertex 121.49290400000002 2.9931278651415596 41.12378600000001
  endloop
endfacet
facet normal 9.554331790665858e-17 -0.6002782328151244 0.7997912497698081
  outer loop
    vertex 128.99169621134357 14.99758442268706 9.503623365969405
    vertex 113.99411178865651 14.99758442268706 9.503623365969407
    vertex 121.49290400000002 5.0 1.9999999999999998
  endloop
endfacet
facet normal 0.810301621339172 -0.5852435921074756 -0.03002033231408003
  outer loop
    vertex 128.99169621134357 14.99758442268706 9.503623365969405
    vertex 121.49290400000002 2.9931278651415596 41.12378600000001
    vertex 121.49290400000002 5.0 1.9999999999999998
  endloop
endfacet
facet normal 1.0 0.0 0.0
  outer loop
    vertex 131.49290400000004 19.999999999999996 1.9999999999999998
    vertex 131.49290400000004 0.0 0.0
    vertex 131.49290400000004 19.999999999999996 0.0
  endloop
endfacet
facet normal 0.0 0.0 -1.0
  outer loop
    vertex 131.49290400000004 19.999999999999996 0.0
    vertex 111.49290400000002 0.0 0.0
    vertex 111.49290400000002 19.999999999999996 0.0
  endloop
endfacet
facet normal 0.0 0.0 -1.0
  outer loop
    vertex 111.49290400000002 0.0 0.0
    vertex 131.49290400000004 19.999999999999996 0.0
    vertex 131.49290400000004 0.0 0.0
  endloop
endfacet
facet normal 0.0 -0.37139067635410367 0.9284766908852594
  outer loop
    vertex 131.49290400000004 0.0 0.0
    vertex 121.49290400000002 5.0 1.9999999999999998
    vertex 111.49290400000002 0.0 0.0
  endloop
endfacet
facet normal -1.0 0.0 0.0
  outer loop
    vertex 111.49290400000002 19.999999999999996 0.0
    vertex 111.49290400000002 0.0 0.0
    vertex 111.49290400000002 19.999999999999996 1.9999999999999998
  endloop
endfacet
facet normal 0.1476203493915369 -0.09841356626102461 0.9841356626102459
  outer loop
    vertex 131.49290400000004 19.999999999999996 1.9999999999999998
    vertex 121.49290400000002 5.0 1.9999999999999998
    vertex 131.49290400000004 0.0 0.0
  endloop
endfacet
facet normal -0.1476203493915369 -0.09841356626102461 0.9841356626102459
  outer loop
    vertex 121.49290400000002 5.0 1.9999999999999998
    vertex 111.49290400000002 19.999999999999996 1.9999999999999998
    vertex 111.49290400000002 0.0 0.0
  endloop
endfacet
facet normal 0.0 1.0 0.0
  outer loop
    vertex 111.49290400000002 19.999999999999996 1.9999999999999998
    vertex 131.49290400000004 19.999999999999996 0.0
    vertex 111.49290400000002 19.999999999999996 0.0
  endloop
endfacet
facet normal 0.0 1.0 0.0
  outer loop
    vertex 131.49290400000004 19.999999999999996 0.0
    vertex 111.49290400000002 19.999999999999996 1.9999999999999998
    vertex 131.49290400000004 19.999999999999996 1.9999999999999998
  endloop
endfacet
facet normal 0.0 0.0 1.0
  outer loop
    vertex 131.49290400000004 19.999999999999996 1.9999999999999998
    vertex 111.49290400000002 19.999999999999996 1.9999999999999998
    vertex 121.49290400000002 5.0 1.9999999999999998
  endloop
endfacet
endsolid chess_base
