solid chess_base
facet normal 1.0 0.0 0.0
  outer loop
    vertex 362.167937 35.0 0.0
    vertex 362.167937 0.0 1.9999999999999962
    vertex 362.167937 0.0 0.0
  endloop
endfacet
facet normal 1.0 0.0 0.0
  outer loop
    vertex 362.167937 0.0 1.9999999999999962
    vertex 362.167937 35.0 0.0
    vertex 362.167937 35.0 1.9999999999999962
  endloop
endfacet
facet normal 0.0 1.0 0.0
  outer loop
    vertex 327.167937 35.0 1.9999999999999962
    vertex 362.167937 35.0 0.0
    vertex 327.167937 35.0 0.0
  endloop
endfacet
facet normal 0.0 1.0 0.0
  outer loop
    vertex 362.167937 35.0 0.0
    vertex 327.167937 35.0 1.9999999999999962
    vertex 362.167937 35.0 1.9999999999999962
  endloop
endfacet
facet normal 0.0 1.0 0.0
  outer loop
    vertex 362.167937 35.0 1.9999999999999962
    vertex 327.167937 35.0 1.9999999999999962
    vertex 327.167937 35.0 51.99999999999999
  endloop
endfacet
facet normal 0.0 1.0 0.0
  outer loop
    vertex 362.167937 35.0 1.9999999999999962
    vertex 327.167937 35.0 51.99999999999999
    vertex 362.167937 35.0 51.99999999999999
  endloop
endfacet
facet normal -1.0 0.0 0.0
  outer loop
    vertex 327.167937 35.0 1.9999999999999962
    vertex 327.167937 0.0 0.0
    vertex 327.167937 0.0 1.9999999999999962
  endloop
endfacet
facet normal -1.0 0.0 0.0
  outer loop
    vertex 327.167937 0.0 0.0
    vertex 327.167937 35.0 1.9999999999999962
    vertex 327.167937 35.0 0.0
  endloop
endfacet
facet normal 0.0 -0.6207906497044882 0.7839763830878322
  outer loop
    vertex 347.64181684602954 13.850340094430912 51.99999999999999
    vertex 341.6940571539705 13.850340094430912 51.99999999999999
    vertex 344.667937 7.651050393382272 47.09110074711374
  endloop
endfacet
facet normal -0.0 -1.0 -0.0
  outer loop
    vertex 362.167937 0.0 1.9999999999999962
    vertex 327.167937 0.0 0.0
    vertex 362.167937 0.0 0.0
  endloop
endfacet
facet normal -0.0 -1.0 -0.0
  outer loop
    vertex 327.167937 0.0 0.0
    vertex 362.167937 0.0 1.9999999999999962
    vertex 327.167937 0.0 1.9999999999999962
  endloop
endfacet
facet normal -0.0 -1.0 -0.0
  outer loop
    vertex 327.167937 0.0 1.9999999999999962
    vertex 362.167937 0.0 1.9999999999999962
    vertex 344.667937 0.0 1.9999999999999962
  endloop
endfacet
facet normal 0.0 0.0 -1.0
  outer loop
    vertex 362.167937 35.0 0.0
    vertex 327.167937 0.0 0.0
    vertex 327.167937 35.0 0.0
  endloop
endfacet
facet normal 0.0 0.0 -1.0
  outer loop
    vertex 327.167937 0.0 0.0
    vertex 362.167937 35.0 0.0
    vertex 362.167937 0.0 0.0
  endloop
endfacet
facet normal 0.0 0.0 1.0
  outer loop
    vertex 341.6940571539705 13.850340094430912 51.99999999999999
    vertex 362.167937 35.0 51.99999999999999
    vertex 327.167937 35.0 51.99999999999999
  endloop
endfacet
facet normal 0.0 0.0 1.0
  outer loop
    vertex 362.167937 35.0 51.99999999999999
    vertex 341.6940571539705 13.850340094430912 51.99999999999999
    vertex 347.64181684602954 13.850340094430912 51.99999999999999
  endloop
endfacet
facet normal -0.8057863132318608 -0.5534343746751584 0.2107577052829194
  outer loop
    vertex 344.667937 7.651050393382272 47.09110074711374
    vertex 327.167937 35.0 51.99999999999999
    vertex 344.667937 0.0 26.999999999999996
  endloop
endfacet
facet normal -0.8057863132318608 -0.5534343746751584 0.2107577052829194
  outer loop
    vertex 327.167937 35.0 51.99999999999999
    vertex 344.667937 7.651050393382272 47.09110074711374
    vertex 341.6940571539705 13.850340094430912 51.99999999999999
  endloop
endfacet
facet normal 0.0 -0.5812381937190964 0.813733471206735
  outer loop
    vertex 362.167937 35.0 51.99999999999999
    vertex 327.167937 35.0 51.99999999999999
    vertex 344.667937 0.0 26.999999999999996
  endloop
endfacet
facet normal 0.8057863132318608 -0.5534343746751584 0.2107577052829194
  outer loop
    vertex 362.167937 35.0 51.99999999999999
    vertex 344.667937 7.651050393382272 47.09110074711374
    vertex 344.667937 0.0 26.999999999999996
  endloop
endfacet
facet normal 0.8057863132318608 -0.5534343746751584 0.2107577052829194
  outer loop
    vertex 344.667937 7.651050393382272 47.09110074711374
    vertex 362.167937 35.0 51.99999999999999
    vertex 347.64181684602954 13.850340094430912 51.99999999999999
  endloop
endfacet
facet normal 0.0 0.0 1.0
  outer loop
    vertex 344.667937 0.0 1.9999999999999962
    vertex 327.167937 35.0 1.9999999999999962
    vertex 327.167937 0.0 1.9999999999999962
  endloop
endfacet
facet normal 0.0 0.0 1.0
  outer loop
    vertex 362.167937 35.0 1.9999999999999962
    vertex 344.667937 0.0 1.9999999999999962
    vertex 362.167937 0.0 1.9999999999999962
  endloop
endfacet
facet normal 0.8944271909999161 -0.4472135954999579 2.159404365754622e-17
  outer loop
    vertex 362.167937 35.0 1.9999999999999962
    vertex 344.667937 0.0 26.999999999999996
    vertex 344.667937 0.0 1.9999999999999962
  endloop
endfacet
facet normal 0.8944271909999161 -0.4472135954999579 2.159404365754622e-17
  outer loop
    vertex 344.667937 0.0 26.999999999999996
    vertex 362.167937 35.0 1.9999999999999962
    vertex 362.167937 35.0 51.99999999999999
  endloop
endfacet
facet normal -0.8944271909999161 -0.4472135954999579 2.159404365754622e-17
  outer loop
    vertex 327.167937 35.0 51.99999999999999
    vertex 344.667937 0.0 1.9999999999999962
    vertex 344.667937 0.0 26.999999999999996
  endloop
endfacet
facet normal -0.8944271909999161 -0.4472135954999579 2.159404365754622e-17
  outer loop
    vertex 344.667937 0.0 1.9999999999999962
    vertex 327.167937 35.0 51.99999999999999
    vertex 327.167937 35.0 1.9999999999999962
  endloop
endfacet
endsolid chess_base
