# Alias OBJ Model File
# Exported from SketchUp, (c) 2000-2012 Trimble Navigation Limited
# File units = millimeters

mtllib pawn_2.mtl

g Mesh1 Group1 Model

usemtl FrontColor
v 10 2 -5
vt 0.0545965 0.0381977
vn -0.828517 -0.0920575 0.552345
v 2.50121 9.50362 -14.9976
vt -0.436666 0.334876
v 0 2 -20
vt -0.655158 0.0381977
f 1/1/1 2/2/1 3/3/1

vt -0.421007 0.361215
vn -0.810302 -0.0300203 0.585244
vt 0.0709346 0.0656633
v 10 41.1238 -2.99313
vt 0.134986 1.60666
f 2/4/2 1/5/2 4/6/2

vt 0.393701 0.204705
vn 9.55433e-017 0.799791 0.600278
v 17.4988 9.50362 -14.9976
vt 0.688929 0.696841
vt 0.0984727 0.696841
f 1/7/3 5/8/3 2/9/3

vt 0.873438 0.395188
vn 0.828517 -0.0920575 0.552345
vt 0.382175 0.0985099
v 20 2 -20
vt 1.09193 0.0985099
f 5/10/4 1/11/4 6/12/4

vt 0.390095 0.0848259
vn 0.810302 -0.0300203 0.585244
vt 0.882036 0.380377
vt 0.326043 1.62583
f 1/13/5 5/14/5 4/15/5

vt -0.0984727 0.140229
vn 2.82563e-017 0.354928 -0.934894
vt -0.393701 1.47181
vt -0.688929 0.140229
f 2/16/6 4/17/6 5/18/6

vt 1.12812e-017 -0.371256
vn 1.19209e-017 0.5547 -0.83205
vt -0.0984727 -0.0162075
vt -0.688929 -0.0162075
vt -0.787402 -0.371256
f 3/19/7 2/20/7 5/21/7 6/22/7 

v 0 0 -20
vt 0 0
vn 0 0 -1
vt 0 0.0787402
vt -0.787402 0.0787402
v 20 0 -20
vt -0.787402 0
f 7/23/8 3/24/8 6/25/8 8/26/8 

vn -1 0 -0
v 0 0 -0
f 7/26/9 9/23/9 3/25/9

vn 0 -1 -0
vt 0 0.787402
vt -0.787402 0.787402
v 20 0 -0
f 9/23/10 7/27/10 8/28/10 10/26/10 

vn 1 0 -0
vt 0.787402 0
vt 0.787402 0.0787402
f 10/23/11 8/29/11 6/30/11

vt 0.436772 -0.644764
vn 0.14762 0.984136 0.0984136
vt 1.09193 -0.200951
vt 0.382175 -0.200951
f 10/31/12 6/32/12 1/33/12

vt 0.787402 0.787402
vn 0 1 -0
vt 0.393701 0.19685
f 6/34/13 3/27/13 1/35/13

vn -0.14762 0.984136 0.0984136
vt 0.0545965 0.443813
vt -0.655158 0.443813
f 9/23/14 1/36/14 3/37/14

vn 0 0.928477 0.371391
vt 0.393701 0.212014
f 10/29/15 1/38/15 9/23/15

